<svg width="861" height="227" viewBox="0 0 861 227" fill="none" xmlns="http://www.w3.org/2000/svg">
<rect y="104" width="123" height="123" fill="#BF0978"/>
<rect x="123" y="104" width="123" height="123" fill="#D76FA0"/>
<rect x="246" y="104" width="123" height="123" fill="#E9B3CA"/>
<rect x="369" y="104" width="123" height="123" fill="#F5F5F5"/>
<rect x="615" y="104" width="123" height="123" fill="#7FC8AE"/>
<rect x="492" y="104" width="123" height="123" fill="#BBDFD1"/>
<rect x="738" y="104" width="123" height="123" fill="#32B08C"/>
<path d="M3.28087 85H7.15826V62.9713L17.0009 85H19.7278L29.5278 63.0139V85H33.4052V55.5148H29.2722L18.3643 79.887L7.45652 55.5148H3.28087V85ZM62.1375 73.2826C62.1375 65.9113 56.9818 61.267 50.3349 61.267C43.7305 61.267 38.5322 65.9113 38.5322 73.2826C38.5322 80.6965 43.5601 85.3835 50.1644 85.3835C56.8114 85.3835 62.1375 80.6965 62.1375 73.2826ZM42.4949 73.2826C42.4949 67.4026 46.2018 64.633 50.2922 64.633C54.2975 64.633 58.1749 67.4026 58.1749 73.2826C58.1749 79.2052 54.2122 81.9748 50.1644 81.9748C46.1166 81.9748 42.4949 79.2052 42.4949 73.2826ZM71.1129 72.3026C71.1129 66.8913 73.9251 65.2296 77.632 65.2296H78.6547V61.2243C74.9477 61.2243 72.4338 62.8435 71.1129 65.4426V61.6504H67.2355V85H71.1129V72.3026ZM93.0584 64.5478C97.0636 64.5478 100.472 67.0617 100.43 71.6209H85.6871C86.1132 67.0617 89.2662 64.5478 93.0584 64.5478ZM103.966 77.7991H99.7906C98.9384 80.313 96.7227 82.1026 93.2288 82.1026C89.2662 82.1026 85.9427 79.5035 85.6445 74.7739H104.307C104.392 73.9643 104.435 73.2826 104.435 72.4304C104.435 66.0391 100.004 61.267 93.2288 61.267C86.4114 61.267 81.6819 65.9113 81.6819 73.2826C81.6819 80.6965 86.5819 85.3835 93.2288 85.3835C99.0236 85.3835 102.773 82.06 103.966 77.7991ZM119.464 70.1296C119.464 79.0348 125.983 85.2557 134.292 85.2557C140.726 85.2557 145.839 82.06 148.054 76.3504H143.41C141.791 79.887 138.638 81.8896 134.292 81.8896C128.071 81.8896 123.426 77.373 123.426 70.1296C123.426 62.8435 128.071 58.327 134.292 58.327C138.638 58.327 141.791 60.3296 143.41 63.9087H148.054C145.839 58.1565 140.726 54.9183 134.292 54.9183C125.983 54.9183 119.464 61.2243 119.464 70.1296ZM152.377 73.24C152.377 80.4835 157.192 85.3835 163.413 85.3835C167.716 85.3835 170.742 83.1678 172.148 80.6539V85H176.068V61.6504H172.148V65.9113C170.784 63.4826 167.802 61.267 163.456 61.267C157.192 61.267 152.377 65.9539 152.377 73.24ZM172.148 73.2826C172.148 78.7791 168.483 81.9748 164.223 81.9748C159.962 81.9748 156.34 78.7365 156.34 73.24C156.34 67.7435 159.962 64.633 164.223 64.633C168.483 64.633 172.148 67.8713 172.148 73.2826ZM186.498 72.3026C186.498 66.8913 189.31 65.2296 193.017 65.2296H194.039V61.2243C190.332 61.2243 187.818 62.8435 186.498 65.4426V61.6504H182.62V85H186.498V72.3026ZM215.303 78.6513C215.133 70.3 201.583 73.3252 201.583 67.7861C201.583 65.9113 203.287 64.5478 206.142 64.5478C209.253 64.5478 211.042 66.2522 211.213 68.5957H215.09C214.834 64.0365 211.426 61.267 206.27 61.267C201.072 61.267 197.706 64.207 197.706 67.7861C197.706 76.4783 211.511 73.453 211.511 78.6513C211.511 80.5687 209.807 82.1026 206.739 82.1026C203.458 82.1026 201.455 80.3983 201.242 78.14H197.237C197.493 82.4009 201.327 85.3835 206.781 85.3835C211.937 85.3835 215.303 82.4861 215.303 78.6513Z" fill="black"/>
<path d="M626.894 85H630.772V71.6209H641.253V68.4678H630.772V58.4548H643.682V55.3017H626.894V85ZM658.293 64.5478C662.298 64.5478 665.707 67.0617 665.664 71.6209H650.921C651.348 67.0617 654.501 64.5478 658.293 64.5478ZM669.201 77.7991H665.025C664.173 80.313 661.957 82.1026 658.463 82.1026C654.501 82.1026 651.177 79.5035 650.879 74.7739H669.541C669.627 73.9643 669.669 73.2826 669.669 72.4304C669.669 66.0391 665.238 61.267 658.463 61.267C651.646 61.267 646.916 65.9113 646.916 73.2826C646.916 80.6965 651.816 85.3835 658.463 85.3835C664.258 85.3835 668.008 82.06 669.201 77.7991ZM679.346 85H683.352L688.976 66.4652L694.6 85H698.606L705.892 61.6504H702.057L696.773 81.293L691.106 61.6504H687.144L681.349 81.2504L675.98 61.6504H672.018L679.346 85ZM719.668 64.5478C723.673 64.5478 727.082 67.0617 727.039 71.6209H712.296C712.722 67.0617 715.875 64.5478 719.668 64.5478ZM730.575 77.7991H726.4C725.548 80.313 723.332 82.1026 719.838 82.1026C715.875 82.1026 712.552 79.5035 712.254 74.7739H730.916C731.002 73.9643 731.044 73.2826 731.044 72.4304C731.044 66.0391 726.613 61.267 719.838 61.267C713.021 61.267 708.291 65.9113 708.291 73.2826C708.291 80.6965 713.191 85.3835 719.838 85.3835C725.633 85.3835 729.382 82.06 730.575 77.7991ZM740.04 72.3026C740.04 66.8913 742.852 65.2296 746.559 65.2296H747.581V61.2243C743.874 61.2243 741.36 62.8435 740.04 65.4426V61.6504H736.162V85H740.04V72.3026ZM761.968 70.1296C761.968 79.0348 768.487 85.2557 776.796 85.2557C783.23 85.2557 788.343 82.06 790.558 76.3504H785.914C784.295 79.887 781.142 81.8896 776.796 81.8896C770.575 81.8896 765.931 77.373 765.931 70.1296C765.931 62.8435 770.575 58.327 776.796 58.327C781.142 58.327 784.295 60.3296 785.914 63.9087H790.558C788.343 58.1565 783.23 54.9183 776.796 54.9183C768.487 54.9183 761.968 61.2243 761.968 70.1296ZM794.882 73.24C794.882 80.4835 799.696 85.3835 805.917 85.3835C810.221 85.3835 813.246 83.1678 814.652 80.6539V85H818.572V61.6504H814.652V65.9113C813.289 63.4826 810.306 61.267 805.96 61.267C799.696 61.267 794.882 65.9539 794.882 73.24ZM814.652 73.2826C814.652 78.7791 810.988 81.9748 806.727 81.9748C802.466 81.9748 798.844 78.7365 798.844 73.24C798.844 67.7435 802.466 64.633 806.727 64.633C810.988 64.633 814.652 67.8713 814.652 73.2826ZM829.002 72.3026C829.002 66.8913 831.814 65.2296 835.521 65.2296H836.544V61.2243C832.837 61.2243 830.323 62.8435 829.002 65.4426V61.6504H825.124V85H829.002V72.3026ZM857.807 78.6513C857.637 70.3 844.087 73.3252 844.087 67.7861C844.087 65.9113 845.792 64.5478 848.646 64.5478C851.757 64.5478 853.546 66.2522 853.717 68.5957H857.594C857.339 64.0365 853.93 61.267 848.774 61.267C843.576 61.267 840.21 64.207 840.21 67.7861C840.21 76.4783 854.015 73.453 854.015 78.6513C854.015 80.5687 852.311 82.1026 849.243 82.1026C845.962 82.1026 843.959 80.3983 843.746 78.14H839.741C839.997 82.4009 843.832 85.3835 849.286 85.3835C854.441 85.3835 857.807 82.4861 857.807 78.6513Z" fill="black"/>
</svg>
