<svg width="861" height="227" viewBox="0 0 861 227" fill="none" xmlns="http://www.w3.org/2000/svg">
<rect y="104" width="123" height="123" fill="#BF0978"/>
<rect x="123" y="104" width="123" height="123" fill="#D76FA0"/>
<rect x="246" y="104" width="123" height="123" fill="#E9B3CA"/>
<rect x="369" y="104" width="123" height="123" fill="#F5F5F5"/>
<rect x="615" y="104" width="123" height="123" fill="#7FC8AE"/>
<rect x="492" y="104" width="123" height="123" fill="#BBDFD1"/>
<rect x="738" y="104" width="123" height="123" fill="#32B08C"/>
<path d="M3.28087 85H7.15826V62.9713L17.0009 85H19.7278L29.5278 63.0139V85H33.4052V55.5148H29.2722L18.3643 79.887L7.45652 55.5148H3.28087V85ZM62.1375 73.2826C62.1375 65.9113 56.9818 61.267 50.3349 61.267C43.7305 61.267 38.5322 65.9113 38.5322 73.2826C38.5322 80.6965 43.5601 85.3835 50.1644 85.3835C56.8114 85.3835 62.1375 80.6965 62.1375 73.2826ZM42.4949 73.2826C42.4949 67.4026 46.2018 64.633 50.2922 64.633C54.2975 64.633 58.1749 67.4026 58.1749 73.2826C58.1749 79.2052 54.2122 81.9748 50.1644 81.9748C46.1166 81.9748 42.4949 79.2052 42.4949 73.2826ZM71.1129 72.3026C71.1129 66.8913 73.9251 65.2296 77.632 65.2296H78.6547V61.2243C74.9477 61.2243 72.4338 62.8435 71.1129 65.4426V61.6504H67.2355V85H71.1129V72.3026ZM93.0584 64.5478C97.0636 64.5478 100.472 67.0617 100.43 71.6209H85.6871C86.1132 67.0617 89.2662 64.5478 93.0584 64.5478ZM103.966 77.7991H99.7906C98.9384 80.313 96.7227 82.1026 93.2288 82.1026C89.2662 82.1026 85.9427 79.5035 85.6445 74.7739H104.307C104.392 73.9643 104.435 73.2826 104.435 72.4304C104.435 66.0391 100.004 61.267 93.2288 61.267C86.4114 61.267 81.6819 65.9113 81.6819 73.2826C81.6819 80.6965 86.5819 85.3835 93.2288 85.3835C99.0236 85.3835 102.773 82.06 103.966 77.7991ZM130.159 55.3017H120.912V85H130.159C139.916 85 145.924 79.4183 145.924 70.2148C145.924 61.0113 139.916 55.3017 130.159 55.3017ZM124.79 81.8043V58.4548H130.159C137.913 58.4548 141.961 62.9713 141.961 70.2148C141.961 77.4583 137.913 81.8043 130.159 81.8043H124.79ZM160.966 64.5478C164.971 64.5478 168.38 67.0617 168.337 71.6209H153.595C154.021 67.0617 157.174 64.5478 160.966 64.5478ZM171.874 77.7991H167.698C166.846 80.313 164.63 82.1026 161.136 82.1026C157.174 82.1026 153.85 79.5035 153.552 74.7739H172.215C172.3 73.9643 172.343 73.2826 172.343 72.4304C172.343 66.0391 167.911 61.267 161.136 61.267C154.319 61.267 149.589 65.9113 149.589 73.2826C149.589 80.6965 154.489 85.3835 161.136 85.3835C166.931 85.3835 170.681 82.06 171.874 77.7991ZM181.338 65.9539V61.6504H177.461V96.0783H181.338V80.6965C182.787 83.0826 185.812 85.3835 190.073 85.3835C196.336 85.3835 201.151 80.4835 201.151 73.24C201.151 65.9539 196.336 61.267 190.073 61.267C185.812 61.267 182.744 63.4826 181.338 65.9539ZM197.188 73.24C197.188 78.7365 193.567 81.9748 189.263 81.9748C185.045 81.9748 181.338 78.7791 181.338 73.2826C181.338 67.8713 185.045 64.633 189.263 64.633C193.567 64.633 197.188 67.7435 197.188 73.24ZM210.132 72.3026C210.132 66.8913 212.944 65.2296 216.651 65.2296H217.674V61.2243C213.967 61.2243 211.453 62.8435 210.132 65.4426V61.6504H206.255V85H210.132V72.3026ZM222.15 85H226.027V61.6504H222.15V85ZM224.152 57.8583C225.558 57.8583 226.709 56.7078 226.709 55.2165C226.709 53.7252 225.558 52.5748 224.152 52.5748C222.661 52.5748 221.511 53.7252 221.511 55.2165C221.511 56.7078 222.661 57.8583 224.152 57.8583ZM229.866 61.6504L239.027 85H243.543L252.704 61.6504H248.571L241.328 81.4209L234.042 61.6504H229.866ZM255.071 73.24C255.071 80.4835 259.886 85.3835 266.107 85.3835C270.41 85.3835 273.435 83.1678 274.841 80.6539V85H278.761V61.6504H274.841V65.9113C273.478 63.4826 270.495 61.267 266.149 61.267C259.886 61.267 255.071 65.9539 255.071 73.24ZM274.841 73.2826C274.841 78.7791 271.177 81.9748 266.916 81.9748C262.655 81.9748 259.034 78.7365 259.034 73.24C259.034 67.7435 262.655 64.633 266.916 64.633C271.177 64.633 274.841 67.8713 274.841 73.2826ZM286.166 78.6087C286.166 83.2957 288.509 85 292.643 85H296.136V81.7191H293.282C290.896 81.7191 290.043 80.9096 290.043 78.6087V64.8461H296.136V61.6504H290.043V55.7704H286.166V61.6504H283.141V64.8461H286.166V78.6087ZM300.834 85H304.712V61.6504H300.834V85ZM302.837 57.8583C304.243 57.8583 305.393 56.7078 305.393 55.2165C305.393 53.7252 304.243 52.5748 302.837 52.5748C301.346 52.5748 300.195 53.7252 300.195 55.2165C300.195 56.7078 301.346 57.8583 302.837 57.8583ZM333.477 73.2826C333.477 65.9113 328.321 61.267 321.674 61.267C315.07 61.267 309.871 65.9113 309.871 73.2826C309.871 80.6965 314.899 85.3835 321.504 85.3835C328.151 85.3835 333.477 80.6965 333.477 73.2826ZM313.834 73.2826C313.834 67.4026 317.541 64.633 321.631 64.633C325.637 64.633 329.514 67.4026 329.514 73.2826C329.514 79.2052 325.551 81.9748 321.504 81.9748C317.456 81.9748 313.834 79.2052 313.834 73.2826ZM355.661 85H359.496V71.2374C359.496 64.5478 355.363 61.2243 349.951 61.2243C346.798 61.2243 343.986 62.5452 342.452 64.9739V61.6504H338.575V85H342.452V72.0896C342.452 67.0617 345.179 64.5904 349.142 64.5904C353.062 64.5904 355.661 67.0191 355.661 71.7913V85Z" fill="black"/>
<path d="M517.668 55.3017V85H531.942V81.847H521.545V55.3017H517.668ZM545.987 64.5478C549.992 64.5478 553.401 67.0617 553.359 71.6209H538.616C539.042 67.0617 542.195 64.5478 545.987 64.5478ZM556.895 77.7991H552.719C551.867 80.313 549.652 82.1026 546.158 82.1026C542.195 82.1026 538.872 79.5035 538.573 74.7739H557.236C557.321 73.9643 557.364 73.2826 557.364 72.4304C557.364 66.0391 552.932 61.267 546.158 61.267C539.34 61.267 534.611 65.9113 534.611 73.2826C534.611 80.6965 539.511 85.3835 546.158 85.3835C551.952 85.3835 555.702 82.06 556.895 77.7991ZM579.27 78.6513C579.099 70.3 565.55 73.3252 565.55 67.7861C565.55 65.9113 567.254 64.5478 570.109 64.5478C573.219 64.5478 575.009 66.2522 575.179 68.5957H579.057C578.801 64.0365 575.392 61.267 570.237 61.267C565.038 61.267 561.672 64.207 561.672 67.7861C561.672 76.4783 575.477 73.453 575.477 78.6513C575.477 80.5687 573.773 82.1026 570.705 82.1026C567.424 82.1026 565.422 80.3983 565.209 78.14H561.204C561.459 82.4009 565.294 85.3835 570.748 85.3835C575.904 85.3835 579.27 82.4861 579.27 78.6513ZM601.531 78.6513C601.361 70.3 587.811 73.3252 587.811 67.7861C587.811 65.9113 589.515 64.5478 592.37 64.5478C595.481 64.5478 597.27 66.2522 597.441 68.5957H601.318C601.062 64.0365 597.654 61.267 592.498 61.267C587.3 61.267 583.934 64.207 583.934 67.7861C583.934 76.4783 597.739 73.453 597.739 78.6513C597.739 80.5687 596.034 82.1026 592.967 82.1026C589.686 82.1026 587.683 80.3983 587.47 78.14H583.465C583.721 82.4009 587.555 85.3835 593.009 85.3835C598.165 85.3835 601.531 82.4861 601.531 78.6513ZM627.61 55.3017H618.364V85H627.61C637.368 85 643.375 79.4183 643.375 70.2148C643.375 61.0113 637.368 55.3017 627.61 55.3017ZM622.241 81.8043V58.4548H627.61C635.365 58.4548 639.413 62.9713 639.413 70.2148C639.413 77.4583 635.365 81.8043 627.61 81.8043H622.241ZM658.418 64.5478C662.423 64.5478 665.832 67.0617 665.789 71.6209H651.046C651.472 67.0617 654.625 64.5478 658.418 64.5478ZM669.325 77.7991H665.15C664.298 80.313 662.082 82.1026 658.588 82.1026C654.625 82.1026 651.302 79.5035 651.004 74.7739H669.666C669.752 73.9643 669.794 73.2826 669.794 72.4304C669.794 66.0391 665.363 61.267 658.588 61.267C651.771 61.267 647.041 65.9113 647.041 73.2826C647.041 80.6965 651.941 85.3835 658.588 85.3835C664.383 85.3835 668.132 82.06 669.325 77.7991ZM678.79 65.9539V61.6504H674.912V96.0783H678.79V80.6965C680.238 83.0826 683.263 85.3835 687.524 85.3835C693.788 85.3835 698.603 80.4835 698.603 73.24C698.603 65.9539 693.788 61.267 687.524 61.267C683.263 61.267 680.196 63.4826 678.79 65.9539ZM694.64 73.24C694.64 78.7365 691.018 81.9748 686.715 81.9748C682.497 81.9748 678.79 78.7791 678.79 73.2826C678.79 67.8713 682.497 64.633 686.715 64.633C691.018 64.633 694.64 67.7435 694.64 73.24ZM707.584 72.3026C707.584 66.8913 710.396 65.2296 714.103 65.2296H715.125V61.2243C711.418 61.2243 708.905 62.8435 707.584 65.4426V61.6504H703.706V85H707.584V72.3026ZM719.601 85H723.479V61.6504H719.601V85ZM721.604 57.8583C723.01 57.8583 724.16 56.7078 724.16 55.2165C724.16 53.7252 723.01 52.5748 721.604 52.5748C720.113 52.5748 718.962 53.7252 718.962 55.2165C718.962 56.7078 720.113 57.8583 721.604 57.8583ZM727.318 61.6504L736.478 85H740.995L750.156 61.6504H746.023L738.779 81.4209L731.493 61.6504H727.318ZM752.523 73.24C752.523 80.4835 757.337 85.3835 763.558 85.3835C767.862 85.3835 770.887 83.1678 772.293 80.6539V85H776.213V61.6504H772.293V65.9113C770.93 63.4826 767.947 61.267 763.601 61.267C757.337 61.267 752.523 65.9539 752.523 73.24ZM772.293 73.2826C772.293 78.7791 768.629 81.9748 764.368 81.9748C760.107 81.9748 756.485 78.7365 756.485 73.24C756.485 67.7435 760.107 64.633 764.368 64.633C768.629 64.633 772.293 67.8713 772.293 73.2826ZM783.618 78.6087C783.618 83.2957 785.961 85 790.094 85H793.588V81.7191H790.733C788.347 81.7191 787.495 80.9096 787.495 78.6087V64.8461H793.588V61.6504H787.495V55.7704H783.618V61.6504H780.592V64.8461H783.618V78.6087ZM798.286 85H802.163V61.6504H798.286V85ZM800.289 57.8583C801.695 57.8583 802.845 56.7078 802.845 55.2165C802.845 53.7252 801.695 52.5748 800.289 52.5748C798.797 52.5748 797.647 53.7252 797.647 55.2165C797.647 56.7078 798.797 57.8583 800.289 57.8583ZM830.928 73.2826C830.928 65.9113 825.773 61.267 819.126 61.267C812.521 61.267 807.323 65.9113 807.323 73.2826C807.323 80.6965 812.351 85.3835 818.955 85.3835C825.602 85.3835 830.928 80.6965 830.928 73.2826ZM811.286 73.2826C811.286 67.4026 814.993 64.633 819.083 64.633C823.088 64.633 826.966 67.4026 826.966 73.2826C826.966 79.2052 823.003 81.9748 818.955 81.9748C814.907 81.9748 811.286 79.2052 811.286 73.2826ZM853.112 85H856.947V71.2374C856.947 64.5478 852.814 61.2243 847.403 61.2243C844.25 61.2243 841.438 62.5452 839.904 64.9739V61.6504H836.026V85H839.904V72.0896C839.904 67.0617 842.631 64.5904 846.593 64.5904C850.513 64.5904 853.112 67.0191 853.112 71.7913V85Z" fill="black"/>
</svg>
