<svg width="861" height="227" viewBox="0 0 861 227" fill="none" xmlns="http://www.w3.org/2000/svg">
<rect y="104" width="123" height="123" fill="#BF0978"/>
<rect x="123" y="104" width="123" height="123" fill="#D76FA0"/>
<rect x="246" y="104" width="123" height="123" fill="#E9B3CA"/>
<rect x="369" y="104" width="123" height="123" fill="#F5F5F5"/>
<rect x="615" y="104" width="123" height="123" fill="#7FC8AE"/>
<rect x="492" y="104" width="123" height="123" fill="#BBDFD1"/>
<rect x="738" y="104" width="123" height="123" fill="#32B08C"/>
<path d="M3.28087 8.30174V38H17.5548V34.847H7.15826V8.30174H3.28087ZM31.6003 17.5478C35.6056 17.5478 39.0143 20.0617 38.9716 24.6209H24.229C24.6551 20.0617 27.8082 17.5478 31.6003 17.5478ZM42.5082 30.7991H38.3325C37.4803 33.313 35.2647 35.1026 31.7708 35.1026C27.8082 35.1026 24.4847 32.5035 24.1864 27.7739H42.849C42.9343 26.9643 42.9769 26.2826 42.9769 25.4304C42.9769 19.0391 38.5456 14.267 31.7708 14.267C24.9534 14.267 20.2238 18.9113 20.2238 26.2826C20.2238 33.6965 25.1238 38.3835 31.7708 38.3835C37.5656 38.3835 41.3151 35.06 42.5082 30.7991ZM64.8827 31.6513C64.7123 23.3 51.1627 26.3252 51.1627 20.7861C51.1627 18.9113 52.8671 17.5478 55.7219 17.5478C58.8323 17.5478 60.6219 19.2522 60.7923 21.5957H64.6697C64.414 17.0365 61.0053 14.267 55.8497 14.267C50.6514 14.267 47.2853 17.207 47.2853 20.7861C47.2853 29.4783 61.0905 26.453 61.0905 31.6513C61.0905 33.5687 59.3862 35.1026 56.3184 35.1026C53.0375 35.1026 51.0349 33.3983 50.8219 31.14H46.8166C47.0723 35.4009 50.9071 38.3835 56.361 38.3835C61.5166 38.3835 64.8827 35.4861 64.8827 31.6513ZM87.1441 31.6513C86.9737 23.3 73.4241 26.3252 73.4241 20.7861C73.4241 18.9113 75.1285 17.5478 77.9832 17.5478C81.0937 17.5478 82.8832 19.2522 83.0537 21.5957H86.9311C86.6754 17.0365 83.2667 14.267 78.1111 14.267C72.9128 14.267 69.5467 17.207 69.5467 20.7861C69.5467 29.4783 83.3519 26.453 83.3519 31.6513C83.3519 33.5687 81.6476 35.1026 78.5798 35.1026C75.2989 35.1026 73.2963 33.3983 73.0832 31.14H69.078C69.3337 35.4009 73.1685 38.3835 78.6224 38.3835C83.778 38.3835 87.1441 35.4861 87.1441 31.6513ZM107.855 22.4052V11.4974H113.564C117.995 11.4974 119.87 13.5426 119.87 16.9939C119.87 20.3174 117.995 22.4052 113.564 22.4052H107.855ZM123.833 16.9939C123.833 12.1365 120.552 8.30174 113.564 8.30174H103.977V38H107.855V25.6009H113.564C120.935 25.6009 123.833 21.5104 123.833 16.9939ZM132.529 25.3026C132.529 19.8913 135.342 18.2296 139.048 18.2296H140.071V14.2243C136.364 14.2243 133.85 15.8435 132.529 18.4426V14.6504H128.652V38H132.529V25.3026ZM144.547 38H148.424V14.6504H144.547V38ZM146.55 10.8583C147.956 10.8583 149.106 9.70782 149.106 8.21652C149.106 6.72522 147.956 5.57478 146.55 5.57478C145.058 5.57478 143.908 6.72522 143.908 8.21652C143.908 9.70782 145.058 10.8583 146.55 10.8583ZM152.263 14.6504L161.424 38H165.941L175.101 14.6504H170.968L163.725 34.4209L156.439 14.6504H152.263ZM177.468 26.24C177.468 33.4835 182.283 38.3835 188.504 38.3835C192.807 38.3835 195.833 36.1678 197.239 33.6539V38H201.159V14.6504H197.239V18.9113C195.875 16.4826 192.893 14.267 188.546 14.267C182.283 14.267 177.468 18.9539 177.468 26.24ZM197.239 26.2826C197.239 31.7791 193.574 34.9748 189.313 34.9748C185.053 34.9748 181.431 31.7365 181.431 26.24C181.431 20.7435 185.053 17.633 189.313 17.633C193.574 17.633 197.239 20.8713 197.239 26.2826ZM208.563 31.6087C208.563 36.2957 210.907 38 215.04 38H218.534V34.7191H215.679C213.293 34.7191 212.441 33.9096 212.441 31.6087V17.8461H218.534V14.6504H212.441V8.77043H208.563V14.6504H205.538V17.8461H208.563V31.6087ZM233.159 17.5478C237.165 17.5478 240.573 20.0617 240.531 24.6209H225.788C226.214 20.0617 229.367 17.5478 233.159 17.5478ZM244.067 30.7991H239.892C239.039 33.313 236.824 35.1026 233.33 35.1026C229.367 35.1026 226.044 32.5035 225.746 27.7739H244.408C244.493 26.9643 244.536 26.2826 244.536 25.4304C244.536 19.0391 240.105 14.267 233.33 14.267C226.512 14.267 221.783 18.9113 221.783 26.2826C221.783 33.6965 226.683 38.3835 233.33 38.3835C239.125 38.3835 242.874 35.06 244.067 30.7991ZM16.7452 54.9609C8.39391 54.9609 1.83217 61.2243 1.83217 70.1296C1.83217 79.0348 8.39391 85.2557 16.7452 85.2557C24.7983 85.2557 30.6357 79.333 31.3174 71.9617V68.9791H15.3391V72.1322H27.1843C26.5878 78.0122 22.5826 81.7617 16.7452 81.7617C10.4817 81.7617 5.79478 77.2452 5.79478 70.1296C5.79478 62.9713 10.4817 58.4548 16.7452 58.4548C20.9209 58.4548 24.1591 60.4574 25.7783 63.9087H30.4226C28.207 58.1991 23.0087 54.9609 16.7452 54.9609ZM40.3215 72.3026C40.3215 66.8913 43.1336 65.2296 46.8406 65.2296H47.8632V61.2243C44.1563 61.2243 41.6423 62.8435 40.3215 65.4426V61.6504H36.4441V85H40.3215V72.3026ZM62.2669 64.5478C66.2722 64.5478 69.6809 67.0617 69.6383 71.6209H54.8956C55.3217 67.0617 58.4748 64.5478 62.2669 64.5478ZM73.1748 77.7991H68.9991C68.1469 80.313 65.9313 82.1026 62.4374 82.1026C58.4748 82.1026 55.1513 79.5035 54.853 74.7739H73.5156C73.6009 73.9643 73.6435 73.2826 73.6435 72.4304C73.6435 66.0391 69.2122 61.267 62.4374 61.267C55.62 61.267 50.8904 65.9113 50.8904 73.2826C50.8904 80.6965 55.7904 85.3835 62.4374 85.3835C68.2322 85.3835 71.9817 82.06 73.1748 77.7991ZM88.6893 64.5478C92.6946 64.5478 96.1032 67.0617 96.0606 71.6209H81.318C81.7441 67.0617 84.8972 64.5478 88.6893 64.5478ZM99.5972 77.7991H95.4215C94.5693 80.313 92.3537 82.1026 88.8598 82.1026C84.8972 82.1026 81.5737 79.5035 81.2754 74.7739H99.938C100.023 73.9643 100.066 73.2826 100.066 72.4304C100.066 66.0391 95.6346 61.267 88.8598 61.267C82.0424 61.267 77.3128 65.9113 77.3128 73.2826C77.3128 80.6965 82.2128 85.3835 88.8598 85.3835C94.6546 85.3835 98.4041 82.06 99.5972 77.7991ZM122.27 85H126.105V71.2374C126.105 64.5478 121.972 61.2243 116.56 61.2243C113.407 61.2243 110.595 62.5452 109.061 64.9739V61.6504H105.184V85H109.061V72.0896C109.061 67.0617 111.788 64.5904 115.751 64.5904C119.671 64.5904 122.27 67.0191 122.27 71.7913V85ZM163.1 76.9043C163.1 65.9113 147.079 70.6835 147.079 63.0139C147.079 59.8183 149.593 58.1565 152.788 58.2417C156.41 58.2843 158.285 60.5426 158.541 62.5452H162.801C162.333 58.0287 158.626 54.9183 152.959 54.9183C147.079 54.9183 143.116 58.2417 143.116 63.1417C143.116 74.1774 159.18 69.0643 159.18 77.0748C159.18 79.887 156.964 82.0174 153.215 82.0174C149.081 82.0174 147.335 79.5461 147.079 77.0748H142.946C143.031 81.9748 147.249 85.2983 153.215 85.2983C159.648 85.2983 163.1 81.1226 163.1 76.9043ZM172.683 65.9539V61.6504H168.806V96.0783H172.683V80.6965C174.132 83.0826 177.157 85.3835 181.418 85.3835C187.681 85.3835 192.496 80.4835 192.496 73.24C192.496 65.9539 187.681 61.267 181.418 61.267C177.157 61.267 174.089 63.4826 172.683 65.9539ZM188.533 73.24C188.533 78.7365 184.912 81.9748 180.608 81.9748C176.39 81.9748 172.683 78.7791 172.683 73.2826C172.683 67.8713 176.39 64.633 180.608 64.633C184.912 64.633 188.533 67.7435 188.533 73.24ZM196.151 73.24C196.151 80.4835 200.966 85.3835 207.187 85.3835C211.49 85.3835 214.515 83.1678 215.922 80.6539V85H219.842V61.6504H215.922V65.9113C214.558 63.4826 211.575 61.267 207.229 61.267C200.966 61.267 196.151 65.9539 196.151 73.24ZM215.922 73.2826C215.922 78.7791 212.257 81.9748 207.996 81.9748C203.735 81.9748 200.114 78.7365 200.114 73.24C200.114 67.7435 203.735 64.633 207.996 64.633C212.257 64.633 215.922 67.8713 215.922 73.2826ZM224.945 73.2826C224.945 80.6965 229.675 85.3835 236.322 85.3835C242.117 85.3835 245.909 82.1452 247.102 77.5009H242.926C242.074 80.4409 239.773 82.1026 236.322 82.1026C232.061 82.1026 228.908 79.0774 228.908 73.2826C228.908 67.573 232.061 64.5478 236.322 64.5478C239.773 64.5478 242.117 66.3374 242.926 69.1496H247.102C245.909 64.2496 242.117 61.267 236.322 61.267C229.675 61.267 224.945 65.9539 224.945 73.2826ZM262.203 64.5478C266.208 64.5478 269.617 67.0617 269.575 71.6209H254.832C255.258 67.0617 258.411 64.5478 262.203 64.5478ZM273.111 77.7991H268.935C268.083 80.313 265.868 82.1026 262.374 82.1026C258.411 82.1026 255.088 79.5035 254.789 74.7739H273.452C273.537 73.9643 273.58 73.2826 273.58 72.4304C273.58 66.0391 269.148 61.267 262.374 61.267C255.556 61.267 250.827 65.9113 250.827 73.2826C250.827 80.6965 255.727 85.3835 262.374 85.3835C268.168 85.3835 271.918 82.06 273.111 77.7991Z" fill="black"/>
<path d="M599.972 38H603.85V15.9713L613.692 38H616.419L626.219 16.0139V38H630.097V8.51478H625.964L615.056 32.887L604.148 8.51478H599.972V38ZM658.829 26.2826C658.829 18.9113 653.673 14.267 647.026 14.267C640.422 14.267 635.224 18.9113 635.224 26.2826C635.224 33.6965 640.252 38.3835 646.856 38.3835C653.503 38.3835 658.829 33.6965 658.829 26.2826ZM639.186 26.2826C639.186 20.4026 642.893 17.633 646.984 17.633C650.989 17.633 654.866 20.4026 654.866 26.2826C654.866 32.2052 650.904 34.9748 646.856 34.9748C642.808 34.9748 639.186 32.2052 639.186 26.2826ZM667.805 25.3026C667.805 19.8913 670.617 18.2296 674.324 18.2296H675.346V14.2243C671.639 14.2243 669.125 15.8435 667.805 18.4426V14.6504H663.927V38H667.805V25.3026ZM689.75 17.5478C693.755 17.5478 697.164 20.0617 697.121 24.6209H682.379C682.805 20.0617 685.958 17.5478 689.75 17.5478ZM700.658 30.7991H696.482C695.63 33.313 693.414 35.1026 689.92 35.1026C685.958 35.1026 682.634 32.5035 682.336 27.7739H700.999C701.084 26.9643 701.127 26.2826 701.127 25.4304C701.127 19.0391 696.695 14.267 689.92 14.267C683.103 14.267 678.373 18.9113 678.373 26.2826C678.373 33.6965 683.273 38.3835 689.92 38.3835C695.715 38.3835 699.465 35.06 700.658 30.7991ZM721.481 22.4052V11.4974H727.191C731.622 11.4974 733.497 13.5426 733.497 16.9939C733.497 20.3174 731.622 22.4052 727.191 22.4052H721.481ZM737.46 16.9939C737.46 12.1365 734.179 8.30174 727.191 8.30174H717.604V38H721.481V25.6009H727.191C734.562 25.6009 737.46 21.5104 737.46 16.9939ZM746.156 25.3026C746.156 19.8913 748.968 18.2296 752.675 18.2296H753.698V14.2243C749.991 14.2243 747.477 15.8435 746.156 18.4426V14.6504H742.279V38H746.156V25.3026ZM758.174 38H762.051V14.6504H758.174V38ZM760.176 10.8583C761.583 10.8583 762.733 9.70782 762.733 8.21652C762.733 6.72522 761.583 5.57478 760.176 5.57478C758.685 5.57478 757.535 6.72522 757.535 8.21652C757.535 9.70782 758.685 10.8583 760.176 10.8583ZM765.89 14.6504L775.051 38H779.567L788.728 14.6504H784.595L777.352 34.4209L770.066 14.6504H765.89ZM791.095 26.24C791.095 33.4835 795.91 38.3835 802.131 38.3835C806.434 38.3835 809.459 36.1678 810.866 33.6539V38H814.786V14.6504H810.866V18.9113C809.502 16.4826 806.519 14.267 802.173 14.267C795.91 14.267 791.095 18.9539 791.095 26.24ZM810.866 26.2826C810.866 31.7791 807.201 34.9748 802.94 34.9748C798.679 34.9748 795.058 31.7365 795.058 26.24C795.058 20.7435 798.679 17.633 802.94 17.633C807.201 17.633 810.866 20.8713 810.866 26.2826ZM822.19 31.6087C822.19 36.2957 824.534 38 828.667 38H832.161V34.7191H829.306C826.92 34.7191 826.068 33.9096 826.068 31.6087V17.8461H832.161V14.6504H826.068V8.77043H822.19V14.6504H819.165V17.8461H822.19V31.6087ZM846.786 17.5478C850.792 17.5478 854.2 20.0617 854.158 24.6209H839.415C839.841 20.0617 842.994 17.5478 846.786 17.5478ZM857.694 30.7991H853.519C852.666 33.313 850.451 35.1026 846.957 35.1026C842.994 35.1026 839.671 32.5035 839.372 27.7739H858.035C858.12 26.9643 858.163 26.2826 858.163 25.4304C858.163 19.0391 853.732 14.267 846.957 14.267C840.139 14.267 835.41 18.9113 835.41 26.2826C835.41 33.6965 840.31 38.3835 846.957 38.3835C852.752 38.3835 856.501 35.06 857.694 30.7991ZM601.328 54.9609C592.977 54.9609 586.415 61.2243 586.415 70.1296C586.415 79.0348 592.977 85.2557 601.328 85.2557C609.381 85.2557 615.219 79.333 615.9 71.9617V68.9791H599.922V72.1322H611.767C611.171 78.0122 607.166 81.7617 601.328 81.7617C595.065 81.7617 590.378 77.2452 590.378 70.1296C590.378 62.9713 595.065 58.4548 601.328 58.4548C605.504 58.4548 608.742 60.4574 610.361 63.9087H615.006C612.79 58.1991 607.592 54.9609 601.328 54.9609ZM624.905 72.3026C624.905 66.8913 627.717 65.2296 631.424 65.2296H632.446V61.2243C628.739 61.2243 626.225 62.8435 624.905 65.4426V61.6504H621.027V85H624.905V72.3026ZM646.85 64.5478C650.855 64.5478 654.264 67.0617 654.221 71.6209H639.479C639.905 67.0617 643.058 64.5478 646.85 64.5478ZM657.758 77.7991H653.582C652.73 80.313 650.514 82.1026 647.02 82.1026C643.058 82.1026 639.734 79.5035 639.436 74.7739H658.099C658.184 73.9643 658.227 73.2826 658.227 72.4304C658.227 66.0391 653.795 61.267 647.02 61.267C640.203 61.267 635.474 65.9113 635.474 73.2826C635.474 80.6965 640.374 85.3835 647.02 85.3835C652.815 85.3835 656.565 82.06 657.758 77.7991ZM673.272 64.5478C677.278 64.5478 680.686 67.0617 680.644 71.6209H665.901C666.327 67.0617 669.48 64.5478 673.272 64.5478ZM684.18 77.7991H680.005C679.152 80.313 676.937 82.1026 673.443 82.1026C669.48 82.1026 666.157 79.5035 665.858 74.7739H684.521C684.606 73.9643 684.649 73.2826 684.649 72.4304C684.649 66.0391 680.218 61.267 673.443 61.267C666.625 61.267 661.896 65.9113 661.896 73.2826C661.896 80.6965 666.796 85.3835 673.443 85.3835C679.238 85.3835 682.987 82.06 684.18 77.7991ZM706.853 85H710.688V71.2374C710.688 64.5478 706.555 61.2243 701.143 61.2243C697.99 61.2243 695.178 62.5452 693.644 64.9739V61.6504H689.767V85H693.644V72.0896C693.644 67.0617 696.371 64.5904 700.334 64.5904C704.254 64.5904 706.853 67.0191 706.853 71.7913V85ZM747.683 76.9043C747.683 65.9113 731.662 70.6835 731.662 63.0139C731.662 59.8183 734.176 58.1565 737.372 58.2417C740.993 58.2843 742.868 60.5426 743.124 62.5452H747.385C746.916 58.0287 743.209 54.9183 737.542 54.9183C731.662 54.9183 727.699 58.2417 727.699 63.1417C727.699 74.1774 743.763 69.0643 743.763 77.0748C743.763 79.887 741.547 82.0174 737.798 82.0174C733.665 82.0174 731.918 79.5461 731.662 77.0748H727.529C727.614 81.9748 731.832 85.2983 737.798 85.2983C744.232 85.2983 747.683 81.1226 747.683 76.9043ZM757.266 65.9539V61.6504H753.389V96.0783H757.266V80.6965C758.715 83.0826 761.74 85.3835 766.001 85.3835C772.264 85.3835 777.079 80.4835 777.079 73.24C777.079 65.9539 772.264 61.267 766.001 61.267C761.74 61.267 758.672 63.4826 757.266 65.9539ZM773.117 73.24C773.117 78.7365 769.495 81.9748 765.191 81.9748C760.973 81.9748 757.266 78.7791 757.266 73.2826C757.266 67.8713 760.973 64.633 765.191 64.633C769.495 64.633 773.117 67.7435 773.117 73.24ZM780.734 73.24C780.734 80.4835 785.549 85.3835 791.77 85.3835C796.073 85.3835 799.099 83.1678 800.505 80.6539V85H804.425V61.6504H800.505V65.9113C799.141 63.4826 796.159 61.267 791.812 61.267C785.549 61.267 780.734 65.9539 780.734 73.24ZM800.505 73.2826C800.505 78.7791 796.84 81.9748 792.579 81.9748C788.319 81.9748 784.697 78.7365 784.697 73.24C784.697 67.7435 788.319 64.633 792.579 64.633C796.84 64.633 800.505 67.8713 800.505 73.2826ZM809.528 73.2826C809.528 80.6965 814.258 85.3835 820.905 85.3835C826.7 85.3835 830.492 82.1452 831.685 77.5009H827.509C826.657 80.4409 824.356 82.1026 820.905 82.1026C816.644 82.1026 813.491 79.0774 813.491 73.2826C813.491 67.573 816.644 64.5478 820.905 64.5478C824.356 64.5478 826.7 66.3374 827.509 69.1496H831.685C830.492 64.2496 826.7 61.267 820.905 61.267C814.258 61.267 809.528 65.9539 809.528 73.2826ZM846.786 64.5478C850.792 64.5478 854.2 67.0617 854.158 71.6209H839.415C839.841 67.0617 842.994 64.5478 846.786 64.5478ZM857.694 77.7991H853.519C852.666 80.313 850.451 82.1026 846.957 82.1026C842.994 82.1026 839.671 79.5035 839.372 74.7739H858.035C858.12 73.9643 858.163 73.2826 858.163 72.4304C858.163 66.0391 853.732 61.267 846.957 61.267C840.139 61.267 835.41 65.9113 835.41 73.2826C835.41 80.6965 840.31 85.3835 846.957 85.3835C852.752 85.3835 856.501 82.06 857.694 77.7991Z" fill="black"/>
</svg>
