<svg width="861" height="230" viewBox="0 0 861 230" fill="none" xmlns="http://www.w3.org/2000/svg">
<rect width="123" height="123" fill="#BF0978"/>
<rect x="123" width="123" height="123" fill="#D76FA0"/>
<rect x="246" width="123" height="123" fill="#E9B3CA"/>
<rect x="369" width="123" height="123" fill="#F5F5F5"/>
<rect x="615" width="123" height="123" fill="#7FC8AE"/>
<rect x="492" width="123" height="123" fill="#BBDFD1"/>
<rect x="738" width="123" height="123" fill="#32B08C"/>
<path d="M3.28087 141.302V171H17.5548V167.847H7.15826V141.302H3.28087ZM31.6003 150.548C35.6056 150.548 39.0143 153.062 38.9716 157.621H24.229C24.6551 153.062 27.8082 150.548 31.6003 150.548ZM42.5082 163.799H38.3325C37.4803 166.313 35.2647 168.103 31.7708 168.103C27.8082 168.103 24.4847 165.503 24.1864 160.774H42.849C42.9343 159.964 42.9769 159.283 42.9769 158.43C42.9769 152.039 38.5456 147.267 31.7708 147.267C24.9534 147.267 20.2238 151.911 20.2238 159.283C20.2238 166.697 25.1238 171.383 31.7708 171.383C37.5656 171.383 41.3151 168.06 42.5082 163.799ZM64.8827 164.651C64.7123 156.3 51.1627 159.325 51.1627 153.786C51.1627 151.911 52.8671 150.548 55.7219 150.548C58.8323 150.548 60.6219 152.252 60.7923 154.596H64.6697C64.414 150.037 61.0053 147.267 55.8497 147.267C50.6514 147.267 47.2853 150.207 47.2853 153.786C47.2853 162.478 61.0905 159.453 61.0905 164.651C61.0905 166.569 59.3862 168.103 56.3184 168.103C53.0375 168.103 51.0349 166.398 50.8219 164.14H46.8166C47.0723 168.401 50.9071 171.383 56.361 171.383C61.5166 171.383 64.8827 168.486 64.8827 164.651ZM87.1441 164.651C86.9737 156.3 73.4241 159.325 73.4241 153.786C73.4241 151.911 75.1285 150.548 77.9832 150.548C81.0937 150.548 82.8832 152.252 83.0537 154.596H86.9311C86.6754 150.037 83.2667 147.267 78.1111 147.267C72.9128 147.267 69.5467 150.207 69.5467 153.786C69.5467 162.478 83.3519 159.453 83.3519 164.651C83.3519 166.569 81.6476 168.103 78.5798 168.103C75.2989 168.103 73.2963 166.398 73.0832 164.14H69.078C69.3337 168.401 73.1685 171.383 78.6224 171.383C83.778 171.383 87.1441 168.486 87.1441 164.651ZM107.855 155.405V144.497H113.564C117.995 144.497 119.87 146.543 119.87 149.994C119.87 153.317 117.995 155.405 113.564 155.405H107.855ZM123.833 149.994C123.833 145.137 120.552 141.302 113.564 141.302H103.977V171H107.855V158.601H113.564C120.935 158.601 123.833 154.51 123.833 149.994ZM132.529 158.303C132.529 152.891 135.342 151.23 139.048 151.23H140.071V147.224C136.364 147.224 133.85 148.843 132.529 151.443V147.65H128.652V171H132.529V158.303ZM144.547 171H148.424V147.65H144.547V171ZM146.55 143.858C147.956 143.858 149.106 142.708 149.106 141.217C149.106 139.725 147.956 138.575 146.55 138.575C145.058 138.575 143.908 139.725 143.908 141.217C143.908 142.708 145.058 143.858 146.55 143.858ZM152.263 147.65L161.424 171H165.941L175.101 147.65H170.968L163.725 167.421L156.439 147.65H152.263ZM177.468 159.24C177.468 166.483 182.283 171.383 188.504 171.383C192.807 171.383 195.833 169.168 197.239 166.654V171H201.159V147.65H197.239V151.911C195.875 149.483 192.893 147.267 188.546 147.267C182.283 147.267 177.468 151.954 177.468 159.24ZM197.239 159.283C197.239 164.779 193.574 167.975 189.313 167.975C185.053 167.975 181.431 164.737 181.431 159.24C181.431 153.743 185.053 150.633 189.313 150.633C193.574 150.633 197.239 153.871 197.239 159.283ZM208.563 164.609C208.563 169.296 210.907 171 215.04 171H218.534V167.719H215.679C213.293 167.719 212.441 166.91 212.441 164.609V150.846H218.534V147.65H212.441V141.77H208.563V147.65H205.538V150.846H208.563V164.609ZM233.159 150.548C237.165 150.548 240.573 153.062 240.531 157.621H225.788C226.214 153.062 229.367 150.548 233.159 150.548ZM244.067 163.799H239.892C239.039 166.313 236.824 168.103 233.33 168.103C229.367 168.103 226.044 165.503 225.746 160.774H244.408C244.493 159.964 244.536 159.283 244.536 158.43C244.536 152.039 240.105 147.267 233.33 147.267C226.512 147.267 221.783 151.911 221.783 159.283C221.783 166.697 226.683 171.383 233.33 171.383C239.125 171.383 242.874 168.06 244.067 163.799ZM16.7452 187.961C8.39391 187.961 1.83217 194.224 1.83217 203.13C1.83217 212.035 8.39391 218.256 16.7452 218.256C24.7983 218.256 30.6357 212.333 31.3174 204.962V201.979H15.3391V205.132H27.1843C26.5878 211.012 22.5826 214.762 16.7452 214.762C10.4817 214.762 5.79478 210.245 5.79478 203.13C5.79478 195.971 10.4817 191.455 16.7452 191.455C20.9209 191.455 24.1591 193.457 25.7783 196.909H30.4226C28.207 191.199 23.0087 187.961 16.7452 187.961ZM40.3215 205.303C40.3215 199.891 43.1336 198.23 46.8406 198.23H47.8632V194.224C44.1563 194.224 41.6423 195.843 40.3215 198.443V194.65H36.4441V218H40.3215V205.303ZM62.2669 197.548C66.2722 197.548 69.6809 200.062 69.6383 204.621H54.8956C55.3217 200.062 58.4748 197.548 62.2669 197.548ZM73.1748 210.799H68.9991C68.1469 213.313 65.9313 215.103 62.4374 215.103C58.4748 215.103 55.1513 212.503 54.853 207.774H73.5156C73.6009 206.964 73.6435 206.283 73.6435 205.43C73.6435 199.039 69.2122 194.267 62.4374 194.267C55.62 194.267 50.8904 198.911 50.8904 206.283C50.8904 213.697 55.7904 218.383 62.4374 218.383C68.2322 218.383 71.9817 215.06 73.1748 210.799ZM88.6893 197.548C92.6946 197.548 96.1032 200.062 96.0606 204.621H81.318C81.7441 200.062 84.8972 197.548 88.6893 197.548ZM99.5972 210.799H95.4215C94.5693 213.313 92.3537 215.103 88.8598 215.103C84.8972 215.103 81.5737 212.503 81.2754 207.774H99.938C100.023 206.964 100.066 206.283 100.066 205.43C100.066 199.039 95.6346 194.267 88.8598 194.267C82.0424 194.267 77.3128 198.911 77.3128 206.283C77.3128 213.697 82.2128 218.383 88.8598 218.383C94.6546 218.383 98.4041 215.06 99.5972 210.799ZM122.27 218H126.105V204.237C126.105 197.548 121.972 194.224 116.56 194.224C113.407 194.224 110.595 195.545 109.061 197.974V194.65H105.184V218H109.061V205.09C109.061 200.062 111.788 197.59 115.751 197.59C119.671 197.59 122.27 200.019 122.27 204.791V218ZM163.1 209.904C163.1 198.911 147.079 203.683 147.079 196.014C147.079 192.818 149.593 191.157 152.788 191.242C156.41 191.284 158.285 193.543 158.541 195.545H162.801C162.333 191.029 158.626 187.918 152.959 187.918C147.079 187.918 143.116 191.242 143.116 196.142C143.116 207.177 159.18 202.064 159.18 210.075C159.18 212.887 156.964 215.017 153.215 215.017C149.081 215.017 147.335 212.546 147.079 210.075H142.946C143.031 214.975 147.249 218.298 153.215 218.298C159.648 218.298 163.1 214.123 163.1 209.904ZM172.683 198.954V194.65H168.806V229.078H172.683V213.697C174.132 216.083 177.157 218.383 181.418 218.383C187.681 218.383 192.496 213.483 192.496 206.24C192.496 198.954 187.681 194.267 181.418 194.267C177.157 194.267 174.089 196.483 172.683 198.954ZM188.533 206.24C188.533 211.737 184.912 214.975 180.608 214.975C176.39 214.975 172.683 211.779 172.683 206.283C172.683 200.871 176.39 197.633 180.608 197.633C184.912 197.633 188.533 200.743 188.533 206.24ZM196.151 206.24C196.151 213.483 200.966 218.383 207.187 218.383C211.49 218.383 214.515 216.168 215.922 213.654V218H219.842V194.65H215.922V198.911C214.558 196.483 211.575 194.267 207.229 194.267C200.966 194.267 196.151 198.954 196.151 206.24ZM215.922 206.283C215.922 211.779 212.257 214.975 207.996 214.975C203.735 214.975 200.114 211.737 200.114 206.24C200.114 200.743 203.735 197.633 207.996 197.633C212.257 197.633 215.922 200.871 215.922 206.283ZM224.945 206.283C224.945 213.697 229.675 218.383 236.322 218.383C242.117 218.383 245.909 215.145 247.102 210.501H242.926C242.074 213.441 239.773 215.103 236.322 215.103C232.061 215.103 228.908 212.077 228.908 206.283C228.908 200.573 232.061 197.548 236.322 197.548C239.773 197.548 242.117 199.337 242.926 202.15H247.102C245.909 197.25 242.117 194.267 236.322 194.267C229.675 194.267 224.945 198.954 224.945 206.283ZM262.203 197.548C266.208 197.548 269.617 200.062 269.575 204.621H254.832C255.258 200.062 258.411 197.548 262.203 197.548ZM273.111 210.799H268.935C268.083 213.313 265.868 215.103 262.374 215.103C258.411 215.103 255.088 212.503 254.789 207.774H273.452C273.537 206.964 273.58 206.283 273.58 205.43C273.58 199.039 269.148 194.267 262.374 194.267C255.556 194.267 250.827 198.911 250.827 206.283C250.827 213.697 255.727 218.383 262.374 218.383C268.168 218.383 271.918 215.06 273.111 210.799Z" fill="black"/>
<path d="M599.972 171H603.85V148.971L613.692 171H616.419L626.219 149.014V171H630.097V141.515H625.964L615.056 165.887L604.148 141.515H599.972V171ZM658.829 159.283C658.829 151.911 653.673 147.267 647.026 147.267C640.422 147.267 635.224 151.911 635.224 159.283C635.224 166.697 640.252 171.383 646.856 171.383C653.503 171.383 658.829 166.697 658.829 159.283ZM639.186 159.283C639.186 153.403 642.893 150.633 646.984 150.633C650.989 150.633 654.866 153.403 654.866 159.283C654.866 165.205 650.904 167.975 646.856 167.975C642.808 167.975 639.186 165.205 639.186 159.283ZM667.805 158.303C667.805 152.891 670.617 151.23 674.324 151.23H675.346V147.224C671.639 147.224 669.125 148.843 667.805 151.443V147.65H663.927V171H667.805V158.303ZM689.75 150.548C693.755 150.548 697.164 153.062 697.121 157.621H682.379C682.805 153.062 685.958 150.548 689.75 150.548ZM700.658 163.799H696.482C695.63 166.313 693.414 168.103 689.92 168.103C685.958 168.103 682.634 165.503 682.336 160.774H700.999C701.084 159.964 701.127 159.283 701.127 158.43C701.127 152.039 696.695 147.267 689.92 147.267C683.103 147.267 678.373 151.911 678.373 159.283C678.373 166.697 683.273 171.383 689.92 171.383C695.715 171.383 699.465 168.06 700.658 163.799ZM721.481 155.405V144.497H727.191C731.622 144.497 733.497 146.543 733.497 149.994C733.497 153.317 731.622 155.405 727.191 155.405H721.481ZM737.46 149.994C737.46 145.137 734.179 141.302 727.191 141.302H717.604V171H721.481V158.601H727.191C734.562 158.601 737.46 154.51 737.46 149.994ZM746.156 158.303C746.156 152.891 748.968 151.23 752.675 151.23H753.698V147.224C749.991 147.224 747.477 148.843 746.156 151.443V147.65H742.279V171H746.156V158.303ZM758.174 171H762.051V147.65H758.174V171ZM760.176 143.858C761.583 143.858 762.733 142.708 762.733 141.217C762.733 139.725 761.583 138.575 760.176 138.575C758.685 138.575 757.535 139.725 757.535 141.217C757.535 142.708 758.685 143.858 760.176 143.858ZM765.89 147.65L775.051 171H779.567L788.728 147.65H784.595L777.352 167.421L770.066 147.65H765.89ZM791.095 159.24C791.095 166.483 795.91 171.383 802.131 171.383C806.434 171.383 809.459 169.168 810.866 166.654V171H814.786V147.65H810.866V151.911C809.502 149.483 806.519 147.267 802.173 147.267C795.91 147.267 791.095 151.954 791.095 159.24ZM810.866 159.283C810.866 164.779 807.201 167.975 802.94 167.975C798.679 167.975 795.058 164.737 795.058 159.24C795.058 153.743 798.679 150.633 802.94 150.633C807.201 150.633 810.866 153.871 810.866 159.283ZM822.19 164.609C822.19 169.296 824.534 171 828.667 171H832.161V167.719H829.306C826.92 167.719 826.068 166.91 826.068 164.609V150.846H832.161V147.65H826.068V141.77H822.19V147.65H819.165V150.846H822.19V164.609ZM846.786 150.548C850.792 150.548 854.2 153.062 854.158 157.621H839.415C839.841 153.062 842.994 150.548 846.786 150.548ZM857.694 163.799H853.519C852.666 166.313 850.451 168.103 846.957 168.103C842.994 168.103 839.671 165.503 839.372 160.774H858.035C858.12 159.964 858.163 159.283 858.163 158.43C858.163 152.039 853.732 147.267 846.957 147.267C840.139 147.267 835.41 151.911 835.41 159.283C835.41 166.697 840.31 171.383 846.957 171.383C852.752 171.383 856.501 168.06 857.694 163.799ZM601.328 187.961C592.977 187.961 586.415 194.224 586.415 203.13C586.415 212.035 592.977 218.256 601.328 218.256C609.381 218.256 615.219 212.333 615.9 204.962V201.979H599.922V205.132H611.767C611.171 211.012 607.166 214.762 601.328 214.762C595.065 214.762 590.378 210.245 590.378 203.13C590.378 195.971 595.065 191.455 601.328 191.455C605.504 191.455 608.742 193.457 610.361 196.909H615.006C612.79 191.199 607.592 187.961 601.328 187.961ZM624.905 205.303C624.905 199.891 627.717 198.23 631.424 198.23H632.446V194.224C628.739 194.224 626.225 195.843 624.905 198.443V194.65H621.027V218H624.905V205.303ZM646.85 197.548C650.855 197.548 654.264 200.062 654.221 204.621H639.479C639.905 200.062 643.058 197.548 646.85 197.548ZM657.758 210.799H653.582C652.73 213.313 650.514 215.103 647.02 215.103C643.058 215.103 639.734 212.503 639.436 207.774H658.099C658.184 206.964 658.227 206.283 658.227 205.43C658.227 199.039 653.795 194.267 647.02 194.267C640.203 194.267 635.474 198.911 635.474 206.283C635.474 213.697 640.374 218.383 647.02 218.383C652.815 218.383 656.565 215.06 657.758 210.799ZM673.272 197.548C677.278 197.548 680.686 200.062 680.644 204.621H665.901C666.327 200.062 669.48 197.548 673.272 197.548ZM684.18 210.799H680.005C679.152 213.313 676.937 215.103 673.443 215.103C669.48 215.103 666.157 212.503 665.858 207.774H684.521C684.606 206.964 684.649 206.283 684.649 205.43C684.649 199.039 680.218 194.267 673.443 194.267C666.625 194.267 661.896 198.911 661.896 206.283C661.896 213.697 666.796 218.383 673.443 218.383C679.238 218.383 682.987 215.06 684.18 210.799ZM706.853 218H710.688V204.237C710.688 197.548 706.555 194.224 701.143 194.224C697.99 194.224 695.178 195.545 693.644 197.974V194.65H689.767V218H693.644V205.09C693.644 200.062 696.371 197.59 700.334 197.59C704.254 197.59 706.853 200.019 706.853 204.791V218ZM747.683 209.904C747.683 198.911 731.662 203.683 731.662 196.014C731.662 192.818 734.176 191.157 737.372 191.242C740.993 191.284 742.868 193.543 743.124 195.545H747.385C746.916 191.029 743.209 187.918 737.542 187.918C731.662 187.918 727.699 191.242 727.699 196.142C727.699 207.177 743.763 202.064 743.763 210.075C743.763 212.887 741.547 215.017 737.798 215.017C733.665 215.017 731.918 212.546 731.662 210.075H727.529C727.614 214.975 731.832 218.298 737.798 218.298C744.232 218.298 747.683 214.123 747.683 209.904ZM757.266 198.954V194.65H753.389V229.078H757.266V213.697C758.715 216.083 761.74 218.383 766.001 218.383C772.264 218.383 777.079 213.483 777.079 206.24C777.079 198.954 772.264 194.267 766.001 194.267C761.74 194.267 758.672 196.483 757.266 198.954ZM773.117 206.24C773.117 211.737 769.495 214.975 765.191 214.975C760.973 214.975 757.266 211.779 757.266 206.283C757.266 200.871 760.973 197.633 765.191 197.633C769.495 197.633 773.117 200.743 773.117 206.24ZM780.734 206.24C780.734 213.483 785.549 218.383 791.77 218.383C796.073 218.383 799.099 216.168 800.505 213.654V218H804.425V194.65H800.505V198.911C799.141 196.483 796.159 194.267 791.812 194.267C785.549 194.267 780.734 198.954 780.734 206.24ZM800.505 206.283C800.505 211.779 796.84 214.975 792.579 214.975C788.319 214.975 784.697 211.737 784.697 206.24C784.697 200.743 788.319 197.633 792.579 197.633C796.84 197.633 800.505 200.871 800.505 206.283ZM809.528 206.283C809.528 213.697 814.258 218.383 820.905 218.383C826.7 218.383 830.492 215.145 831.685 210.501H827.509C826.657 213.441 824.356 215.103 820.905 215.103C816.644 215.103 813.491 212.077 813.491 206.283C813.491 200.573 816.644 197.548 820.905 197.548C824.356 197.548 826.7 199.337 827.509 202.15H831.685C830.492 197.25 826.7 194.267 820.905 194.267C814.258 194.267 809.528 198.954 809.528 206.283ZM846.786 197.548C850.792 197.548 854.2 200.062 854.158 204.621H839.415C839.841 200.062 842.994 197.548 846.786 197.548ZM857.694 210.799H853.519C852.666 213.313 850.451 215.103 846.957 215.103C842.994 215.103 839.671 212.503 839.372 207.774H858.035C858.12 206.964 858.163 206.283 858.163 205.43C858.163 199.039 853.732 194.267 846.957 194.267C840.139 194.267 835.41 198.911 835.41 206.283C835.41 213.697 840.31 218.383 846.957 218.383C852.752 218.383 856.501 215.06 857.694 210.799Z" fill="black"/>
</svg>
