<svg width="861" height="227" viewBox="0 0 861 227" fill="none" xmlns="http://www.w3.org/2000/svg">
<rect y="104" width="861" height="123" fill="#32B08C"/>
<path d="M230.158 164.405V153.497H235.868C240.299 153.497 242.174 155.543 242.174 158.994C242.174 162.317 240.299 164.405 235.868 164.405H230.158ZM246.137 158.994C246.137 154.137 242.856 150.302 235.868 150.302H226.281V180H230.158V167.601H235.868C243.239 167.601 246.137 163.51 246.137 158.994ZM271.663 156.65H267.786V169.476C267.786 174.503 265.102 176.975 261.097 176.975C257.177 176.975 254.577 174.546 254.577 169.817V156.65H250.743V170.328C250.743 177.017 254.961 180.341 260.33 180.341C263.44 180.341 266.295 178.977 267.786 176.549V180H271.663V156.65ZM282.088 160.997V148.47H278.21V180H282.088V175.697C283.536 178.253 286.562 180.383 290.822 180.383C297.086 180.383 301.901 175.483 301.901 168.24C301.901 160.954 297.128 156.267 290.822 156.267C286.689 156.267 283.579 158.397 282.088 160.997ZM297.938 168.24C297.938 173.737 294.316 176.975 290.013 176.975C285.795 176.975 282.088 173.779 282.088 168.283C282.088 162.871 285.795 159.633 290.013 159.633C294.316 159.633 297.938 162.743 297.938 168.24ZM307.004 180H310.882V148.47H307.004V180ZM317.49 180H321.367V156.65H317.49V180ZM319.493 152.858C320.899 152.858 322.049 151.708 322.049 150.217C322.049 148.725 320.899 147.575 319.493 147.575C318.001 147.575 316.851 148.725 316.851 150.217C316.851 151.708 318.001 152.858 319.493 152.858ZM326.527 168.283C326.527 175.697 331.257 180.383 337.904 180.383C343.698 180.383 347.491 177.145 348.684 172.501H344.508C343.656 175.441 341.355 177.103 337.904 177.103C333.643 177.103 330.49 174.077 330.49 168.283C330.49 162.573 333.643 159.548 337.904 159.548C341.355 159.548 343.698 161.337 344.508 164.15H348.684C347.491 159.25 343.698 156.267 337.904 156.267C331.257 156.267 326.527 160.954 326.527 168.283ZM378.681 149.961C370.33 149.961 363.768 156.224 363.768 165.13C363.768 174.035 370.33 180.256 378.681 180.256C386.734 180.256 392.572 174.333 393.253 166.962V163.979H377.275V167.132H389.12C388.524 173.012 384.519 176.762 378.681 176.762C372.418 176.762 367.731 172.245 367.731 165.13C367.731 157.971 372.418 153.455 378.681 153.455C382.857 153.455 386.095 155.457 387.714 158.909H392.359C390.143 153.199 384.945 149.961 378.681 149.961ZM402.257 167.303C402.257 161.891 405.07 160.23 408.777 160.23H409.799V156.224C406.092 156.224 403.578 157.843 402.257 160.443V156.65H398.38V180H402.257V167.303ZM424.203 159.548C428.208 159.548 431.617 162.062 431.574 166.621H416.832C417.258 162.062 420.411 159.548 424.203 159.548ZM435.111 172.799H430.935C430.083 175.313 427.867 177.103 424.373 177.103C420.411 177.103 417.087 174.503 416.789 169.774H435.452C435.537 168.964 435.579 168.283 435.579 167.43C435.579 161.039 431.148 156.267 424.373 156.267C417.556 156.267 412.826 160.911 412.826 168.283C412.826 175.697 417.726 180.383 424.373 180.383C430.168 180.383 433.918 177.06 435.111 172.799ZM450.625 159.548C454.631 159.548 458.039 162.062 457.997 166.621H443.254C443.68 162.062 446.833 159.548 450.625 159.548ZM461.533 172.799H457.357C456.505 175.313 454.29 177.103 450.796 177.103C446.833 177.103 443.51 174.503 443.211 169.774H461.874C461.959 168.964 462.002 168.283 462.002 167.43C462.002 161.039 457.571 156.267 450.796 156.267C443.978 156.267 439.249 160.911 439.249 168.283C439.249 175.697 444.149 180.383 450.796 180.383C456.591 180.383 460.34 177.06 461.533 172.799ZM484.206 180H488.041V166.237C488.041 159.548 483.908 156.224 478.496 156.224C475.343 156.224 472.531 157.545 470.997 159.974V156.65H467.12V180H470.997V167.09C470.997 162.062 473.724 159.59 477.687 159.59C481.607 159.59 484.206 162.019 484.206 166.791V180ZM525.036 171.904C525.036 160.911 509.015 165.683 509.015 158.014C509.015 154.818 511.529 153.157 514.724 153.242C518.346 153.284 520.221 155.543 520.477 157.545H524.737C524.269 153.029 520.562 149.918 514.895 149.918C509.015 149.918 505.052 153.242 505.052 158.142C505.052 169.177 521.116 164.064 521.116 172.075C521.116 174.887 518.9 177.017 515.151 177.017C511.017 177.017 509.271 174.546 509.015 172.075H504.882C504.967 176.975 509.185 180.298 515.151 180.298C521.584 180.298 525.036 176.123 525.036 171.904ZM534.619 160.954V156.65H530.742V191.078H534.619V175.697C536.068 178.083 539.093 180.383 543.354 180.383C549.617 180.383 554.432 175.483 554.432 168.24C554.432 160.954 549.617 156.267 543.354 156.267C539.093 156.267 536.025 158.483 534.619 160.954ZM550.469 168.24C550.469 173.737 546.848 176.975 542.544 176.975C538.326 176.975 534.619 173.779 534.619 168.283C534.619 162.871 538.326 159.633 542.544 159.633C546.848 159.633 550.469 162.743 550.469 168.24ZM558.087 168.24C558.087 175.483 562.902 180.383 569.123 180.383C573.426 180.383 576.451 178.168 577.858 175.654V180H581.778V156.65H577.858V160.911C576.494 158.483 573.511 156.267 569.165 156.267C562.902 156.267 558.087 160.954 558.087 168.24ZM577.858 168.283C577.858 173.779 574.193 176.975 569.932 176.975C565.671 176.975 562.05 173.737 562.05 168.24C562.05 162.743 565.671 159.633 569.932 159.633C574.193 159.633 577.858 162.871 577.858 168.283ZM586.881 168.283C586.881 175.697 591.611 180.383 598.258 180.383C604.053 180.383 607.845 177.145 609.038 172.501H604.862C604.01 175.441 601.709 177.103 598.258 177.103C593.997 177.103 590.844 174.077 590.844 168.283C590.844 162.573 593.997 159.548 598.258 159.548C601.709 159.548 604.053 161.337 604.862 164.15H609.038C607.845 159.25 604.053 156.267 598.258 156.267C591.611 156.267 586.881 160.954 586.881 168.283ZM624.139 159.548C628.144 159.548 631.553 162.062 631.511 166.621H616.768C617.194 162.062 620.347 159.548 624.139 159.548ZM635.047 172.799H630.871C630.019 175.313 627.804 177.103 624.31 177.103C620.347 177.103 617.024 174.503 616.725 169.774H635.388C635.473 168.964 635.516 168.283 635.516 167.43C635.516 161.039 631.084 156.267 624.31 156.267C617.492 156.267 612.763 160.911 612.763 168.283C612.763 175.697 617.663 180.383 624.31 180.383C630.104 180.383 633.854 177.06 635.047 172.799Z" fill="white"/>
</svg>
